<svg width="26" height="26" viewBox="0 0 26 26" fill="none" xmlns="http://www.w3.org/2000/svg">
<path fill-rule="evenodd" clip-rule="evenodd" d="M0 0H1.24955C2.18057 0 3.07131 0.373311 3.72673 1.0346C4.14158 1.45316 4.44084 1.96546 4.60453 2.52144H22.4914H22.4916H22.4918C23.0259 2.52126 23.5524 2.64411 24.0314 2.88008C24.5105 3.11611 24.9292 3.45897 25.2559 3.88203C25.5824 4.30484 25.8087 4.79679 25.9177 5.32029C26.0238 5.82943 26.0162 6.3555 25.8964 6.86067L24.653 14.388C24.6485 14.4149 24.643 14.4415 24.6364 14.468C24.4464 15.2265 24.0104 15.9009 23.3959 16.3835C22.7813 16.8661 22.0236 17.1289 21.2423 17.1286H21.2418H6.24773C5.31692 17.1286 4.42582 16.7555 3.77024 16.0941C3.11494 15.4329 2.74864 14.5381 2.74864 13.6072V3.52144C2.74864 3.11528 2.58851 2.7273 2.30624 2.4425C2.02432 2.15806 1.64413 2 1.24955 2H0V0ZM4.74864 4.52144V13.6072C4.74864 14.0137 4.9087 14.4016 5.19074 14.6862C5.47251 14.9705 5.85294 15.1286 6.24773 15.1286H21.2423H21.2428C21.5742 15.1288 21.8972 15.0174 22.1607 14.8105C22.4152 14.6107 22.6002 14.3325 22.6872 14.0167L23.9293 6.49771C23.9337 6.47084 23.9392 6.44416 23.9458 6.41774C24.0024 6.19175 24.0072 5.95582 23.9598 5.7282C23.9123 5.50048 23.814 5.28714 23.6729 5.10441C23.532 4.92192 23.3521 4.77498 23.1475 4.67419C22.943 4.57342 22.719 4.52133 22.4923 4.52144H22.4918H4.74864ZM19.9928 20.9233C19.1733 20.9233 18.4937 21.5961 18.4937 22.4448C18.4937 23.2935 19.1733 23.9662 19.9928 23.9662C20.8124 23.9662 21.4919 23.2935 21.4919 22.4448C21.4919 21.5961 20.8124 20.9233 19.9928 20.9233ZM16.4937 22.4448C16.4937 20.5084 18.052 18.9233 19.9928 18.9233C21.9337 18.9233 23.4919 20.5084 23.4919 22.4448C23.4919 24.3812 21.9337 25.9662 19.9928 25.9662C18.052 25.9662 16.4937 24.3812 16.4937 22.4448ZM5.99821 22.4448C5.99821 21.5961 6.67775 20.9233 7.4973 20.9233C8.31686 20.9233 8.9964 21.5961 8.9964 22.4448C8.9964 23.2935 8.31686 23.9662 7.4973 23.9662C6.67775 23.9662 5.99821 23.2935 5.99821 22.4448ZM7.4973 18.9233C5.55644 18.9233 3.99821 20.5084 3.99821 22.4448C3.99821 24.3812 5.55644 25.9662 7.4973 25.9662C9.43818 25.9662 10.9964 24.3812 10.9964 22.4448C10.9964 20.5084 9.43818 18.9233 7.4973 18.9233Z" fill="#44475C"/>
</svg>
